<svg id="Layer_1" data-name="Layer 1" xmlns="http://www.w3.org/2000/svg" viewBox="0 0 344.98 344.98"><defs><style>.cls-1,.cls-3{fill:#7164ff;}.cls-2{fill:#fff;fill-rule:evenodd;}.cls-3{opacity:0.15;}</style></defs><title>love_logo-dark</title><rect class="cls-1" width="344.98" height="344.98"/><path class="cls-2" d="M1023.1,297.62l55.16-55.16h0a21.12,21.12,0,0,0-30.14-29.56l-.55.55-.22.23-.18.22L1032.11,229h0a12.75,12.75,0,0,1-18,0h0L999,213.9l-.18-.22-.22-.23-.55-.55a21.12,21.12,0,0,0-30.15,29.56h0l55.16,55.16Zm71.19-39.13-55.16,55.16,15,15a43.93,43.93,0,0,1,0,62v0h0a43.89,43.89,0,0,1-63.87-60.15v.07a17.57,17.57,0,0,1,12.89,21.84,21.22,21.22,0,0,0,35,22.21h0l0,0a21.16,21.16,0,0,0,0-30l-86.19-86.2-.22-.27a43.75,43.75,0,0,1,62-61.71l1.37,1.37,0,0,8,8,8-8,0,0,1.37-1.37a43.75,43.75,0,0,1,62,61.71Z" transform="translate(-850.61 -113.02)"/><rect class="cls-3" x="1030.24" y="292.18" width="6.01" height="22.67" transform="translate(-762.6 706.49) rotate(-45)"/></svg>